<svg xmlns="http://www.w3.org/2000/svg" xmlns:xlink="http://www.w3.org/1999/xlink" width="100" height="100" viewBox="0 0 100 100" fill="none"><g opacity="1"  transform="translate(0 0)  rotate(0)"><path id="矩形 2" fill-rule="evenodd" fill="url(#linear_0)" opacity="1" d="M30 100L70 100C86.57 100 100 86.57 100 70L100 30C100 13.43 86.57 0 70 0L30 0C13.43 0 0 13.43 0 30L0 70C0 86.57 13.43 100 30 100Z"></path><path id="文本 1" fill-rule="evenodd" style="fill:#FFFFFF" opacity="1" d="M72.3096,17.82l-0.7,6.37h-37.66l0.63,-6.37zM25.1296,82.78l-2.24,-6.02c3.92,-1.68 6.9,-4.16 6.9,-4.16c2.97,-2.49 5,-6.2 5,-6.2c2.03,-3.71 3.33,-9.07 3.33,-9.07c1.29,-5.35 1.99,-12.84 1.99,-12.84h-11.41l0.63,-6.37h44.17l-0.6999,6.37h-11.83l-2.1701,22.75c-0.49,4.69 0.11,6.72 0.11,6.72c0.59,2.03 2.41,2.03 2.41,2.03c2.03,0 3.4001,-2.34 3.4001,-2.34c1.36,-2.35 2.55,-8.51 2.55,-8.51l6.0199,0.98c-1.68,8.47 -4.44,12.49 -4.44,12.49c-2.7699,4.03 -7.81,4.03 -7.81,4.03c-3.08,0 -5.21,-1.43 -5.21,-1.43c-2.14,-1.44 -3.02,-4.73 -3.02,-4.73c-0.87,-3.29 -0.38,-8.82 -0.38,-8.82l2.24,-23.17h-7.98c-0.98,10.71 -3.3599,18.06 -3.3599,18.06c-2.3801,7.35 -6.7901,12.21 -6.7901,12.21c-4.41,4.87 -11.41,8.02 -11.41,8.02z"></path></g><defs><linearGradient id="linear_0" x1="-11.759%" y1="21.705%" x2="92.283%" y2="93.361%" gradientUnits="objectBoundingBox"><stop offset="0" stop-color="#495AFF" stop-opacity="1" /><stop offset="1" stop-color="#0ACFFE" stop-opacity="1" /></linearGradient></defs></svg>